<?xml version='1.0' encoding='utf-8'?>
<svg xmlns="http://www.w3.org/2000/svg" width="2600" height="3e3" version="1.1" viewBox="0 0 687.92 793.75"> <path d="m297.09 729.44h93.73v27.476a23.822 24.056 0 0 1-23.822 24.056h-46.086a23.822 24.056 0 0 1-23.822-24.056z" fill="#888" stroke-linecap="round" stroke-linejoin="round" stroke-opacity=".7406" stroke-width="2.9177" style="paint-order:markers stroke fill"/> <path d="m343.96 127.99c-123.97 9.1e-4 -224.46 100.5-224.46 224.46 0.42008 135.16 101.99 171.4 101.99 269.23h244.95c0-106.36 101.99-139.08 101.99-269.23 2e-4 -123.97-100.49-224.46-224.46-224.46z" fill="#ffde05" stroke-linecap="round" stroke-linejoin="round" stroke-opacity=".7406" stroke-width="8.5883" style="paint-order:markers stroke fill"/> <path d="m374.89 729.44v27.49a23.822 24.262 0 0 1-21.344 24.041h13.456a23.822 24.056 0 0 0 23.822-24.055v-27.476z" fill="#787878" stroke-linecap="round" stroke-linejoin="round" stroke-opacity=".7406" stroke-width="2.9177" style="paint-order:markers stroke fill"/> <path d="m382.55 647.57v-259.95c0-36.671 51.864-36.28 51.864-2.0707 0 34.21-26.869 33.516-58.113 33.516h-64.678c-31.244 0-58.113 0.6942-58.113-33.516 0-34.21 51.864-34.601 51.864 2.0707v259.95" fill="none" stroke="#de9b00" stroke-linecap="round" stroke-linejoin="round" stroke-width="13.294" style="paint-order:markers stroke fill"/> <path d="m475.24 170.44c110.98 113.28-37.743 420.93-254.64 436.24 0.53896 4.8569 0.87952 9.8304 0.87952 15.009h244.95c0-106.36 101.98-139.08 101.98-269.24 1e-4 -74.933-36.753-141.24-93.179-182.01z" fill="#fac800" stroke-linecap="round" stroke-linejoin="round" stroke-opacity=".7406" stroke-width="8.5883" style="paint-order:markers stroke fill"/> <path d="m389.19 529.71c-4.3687 3.9543-8.7465 7.8956-13.296 11.618v80.367h13.296zm-77.175 52.394c-4.3874 2.0829-8.8106 4.0854-13.296 5.9338v33.657h13.296z" color="#000000" fill="#d68400" style="-inkscape-stroke:none;paint-order:markers stroke fill"/> <path d="m221.48 620.38h244.95v71.805a62.256 62.866 0 0 1-62.256 62.866h-120.44a62.256 62.866 0 0 1-62.256-62.866z" fill="#a3a3a3" stroke-linecap="round" stroke-linejoin="round" stroke-opacity=".7406" stroke-width="7.6248" style="paint-order:markers stroke fill"/> <path d="m466.43 621.69-244.95-7.4e-4v33.874z" fill="#8c8c8c" style="paint-order:markers stroke fill"/> <path d="m466.43 655.56-244.95-7.6e-4v33.874z" fill="#8c8c8c" style="paint-order:markers stroke fill"/> <path d="m221.48 689.44v2.748a62.256 62.866 0 0 0 7.707 30.06l237.24-32.808z" fill="#8c8c8c" style="paint-order:markers stroke fill"/> <path d="m436.44 620.38v71.971a62.256 65.199 0 0 1-46.07 62.701h13.809a62.256 62.866 0 0 0 62.256-62.868v-71.805z" fill-opacity=".2232" stroke-linecap="round" stroke-linejoin="round" stroke-opacity=".7406" stroke-width="7.6248" style="paint-order:markers stroke fill"/> <path d="m271.16 191.39c-12.822 3.3164-23.176 12.172-33.427 20.109-32.614 27.172-57.514 64.325-67.714 105.72-1.4322 5.1698-1.8417 16.076 6.2782 14.5 6.7673-2.9199 9.2052-11.246 13.639-16.728 17.735-30.174 37.83-59.051 61.394-84.99 8.7216-10.044 18.603-19.191 26.006-30.303 1.9732-4.1958-1.3032-9.4231-6.1765-8.3036z" fill="#fff" fill-opacity=".46827" stroke-linecap="round" stroke-linejoin="round" stroke-width="13.77" style="paint-order:markers stroke fill"/> <g transform="matrix(.73478 -.42423 .42423 .73478 20.446 266.47)" fill="none" stroke-linecap="round" stroke-linejoin="round" stroke-width="25"> <path d="m593.58 276.62h87.573" stroke="#fac800"/> <path d="m551.09 117.18 54.988-31.747" stroke="#ffde05"/> <path d="m433.82 552.48 43.787 75.841" stroke="#fac800"/> <path d="m550.66 435.96 54.988 31.747" stroke="#ffde05"/> <path d="m434.57 21.19 43.787-75.841" stroke="#fac800"/> <path d="m275.24-21.735 1e-5 -63.495" stroke="#ffde05"/> <path d="m115.79 20.756-43.787-75.841" stroke="#fac800"/> <path d="m-1.0509 137.28-54.988-31.747" stroke="#ffde05"/> <path d="m-37.956 286.18h-87.573" stroke="#fac800"/> </g> </svg>